<svg xmlns="http://www.w3.org/2000/svg" xmlns:xlink="http://www.w3.org/1999/xlink" width="22" height="27" viewBox="0 0 22 27"><defs><path id="jp6wa" d="M880 898.2v6.15a5.6 5.6 0 0 1-5.55 5.64h-1.65c-.46.34-.96.62-1.5.83l.82 3.89h3.02c.55 0 1 .46 1 1.03v1.2a.4.4 0 0 1-.38.39.4.4 0 0 1-.39-.4v-1.2c0-.12-.1-.23-.23-.23h-12.28c-.12 0-.23.11-.23.24v4.23c0 .13.1.24.23.24h12.28c.12 0 .23-.11.23-.24v-1.2c0-.21.17-.39.39-.39a.4.4 0 0 1 .39.4v1.2c0 .56-.46 1.02-1.01 1.02h-12.28c-.55 0-1-.46-1-1.03v-4.23c0-.57.45-1.03 1-1.03h3.02l.82-3.89a6.35 6.35 0 0 1-1.5-.83h-1.65a5.6 5.6 0 0 1-5.55-5.64v-6.14c0-.76.6-1.38 1.36-1.38h3.26v-.05h-.73c-.56 0-1.01-.46-1.01-1.03v-.72c0-.57.45-1.03 1-1.03h6.18a.4.4 0 0 1 .4.4.4.4 0 0 1-.4.4h-6.17c-.13 0-.23.1-.23.23v.72c0 .13.1.24.23.24h14.22c.13 0 .23-.11.23-.24v-.72c0-.13-.1-.24-.23-.24h-6.23a.4.4 0 0 1-.39-.4c0-.21.17-.39.39-.39h6.23c.56 0 1.01.46 1.01 1.03v.72c0 .57-.45 1.03-1 1.03h-.74v.05h3.26c.75 0 1.36.62 1.36 1.38zm-19.96.7v5.45c0 1.92 1.5 3.49 3.37 3.56-.5-.93-.8-2-.8-3.13v-5.88zm3.51 10.3h.78a6.49 6.49 0 0 1-.41-.5h-.37a4.33 4.33 0 0 1-4.29-4.35v-5.84c0-.22.18-.4.4-.4h2.96v-.49h-3.26a.58.58 0 0 0-.58.59v6.14a4.81 4.81 0 0 0 4.77 4.85zm7 1.87a6.38 6.38 0 0 1-3.1 0l-.78 3.64h4.66zm4.05-6.29v-8h-11.2v8a5.65 5.65 0 0 0 5.6 5.69c3.08 0 5.6-2.55 5.6-5.69zm-.01 3.13a3.54 3.54 0 0 0 3.37-3.56v-5.45h-2.58v5.88c0 1.13-.29 2.2-.8 3.13zm4.63-3.56v-6.14a.58.58 0 0 0-.58-.59h-3.26v.5h2.97a.4.4 0 0 1 .39.39v5.84c0 2.4-1.93 4.35-4.29 4.35h-.37c-.13.18-.26.34-.4.5h.77a4.81 4.81 0 0 0 4.77-4.85zm-5.96 13.5a.4.4 0 0 1-.38.4h-7.76a.4.4 0 0 1-.38-.4c0-.21.17-.4.38-.4h7.76a.4.4 0 0 1 .38.4zm-.85-16.74l-1.42 1.4.34 2c.05.32-.29.57-.57.41L869 904l-1.76.93c-.29.16-.62-.09-.57-.41l.34-2-1.42-1.4a.4.4 0 0 1 .21-.68l1.97-.29.88-1.8c.14-.3.56-.3.7 0l.88 1.8 1.97.3a.4.4 0 0 1 .21.67zm-1.1 0l-1.4-.21a.39.39 0 0 1-.29-.22l-.62-1.28-.62 1.28a.39.39 0 0 1-.3.22l-1.38.2 1 1c.1.09.14.22.11.35l-.23 1.4 1.24-.66a.38.38 0 0 1 .36 0l1.24.66-.23-1.4a.4.4 0 0 1 .1-.35z"/></defs><g><g transform="translate(-858 -894)"><use fill="#151515" xlink:href="#jp6wa"/></g></g></svg>