<svg xmlns="http://www.w3.org/2000/svg" xmlns:xlink="http://www.w3.org/1999/xlink" width="15" height="19" viewBox="0 0 15 19"><defs><path id="ab04a" d="M1205 902.45v.1c0 .92-.56 1.7-1.34 2.02v10.26c0 1.2-.95 2.17-2.12 2.17h-8.08a2.15 2.15 0 0 1-2.12-2.17v-10.26a2.17 2.17 0 0 1-1.34-2.01v-.11c0-1.2.95-2.17 2.12-2.17h2.89a2.54 2.54 0 0 1 2.49-2.28c1.29 0 2.35 1 2.5 2.28h2.88c1.17 0 2.12.97 2.12 2.17zm-8.98-2.17h2.96a1.52 1.52 0 0 0-1.48-1.25c-.73 0-1.34.54-1.48 1.25zm6.64 4.45h-10.32v10.1c0 .63.5 1.14 1.12 1.14h8.08c.62 0 1.12-.51 1.12-1.14zm1.33-2.28c0-.63-.5-1.14-1.1-1.14h-10.77c-.62 0-1.12.5-1.12 1.14v.1c0 .64.5 1.15 1.12 1.15h10.76c.62 0 1.11-.51 1.11-1.14zm-9.69 11.69v-5.8a.5.5 0 0 1 .5-.51c.28 0 .5.23.5.51v5.8a.5.5 0 0 1-.5.51.5.5 0 0 1-.5-.51zm2.7 0v-5.8a.5.5 0 0 1 .5-.51c.28 0 .5.23.5.51v5.8a.5.5 0 0 1-.5.51.5.5 0 0 1-.5-.51zm2.7 0v-5.8a.5.5 0 0 1 .5-.51c.27 0 .5.23.5.51v5.8a.5.5 0 0 1-.5.51.5.5 0 0 1-.5-.51z"/></defs><g><g transform="translate(-1190 -898)"><use fill="#727274" xlink:href="#ab04a"/></g></g></svg>